<mxfile host="65bd71144e">
    <diagram name="Page-1" id="ArRINJ6yVZVLWky3Rn_c">
        <mxGraphModel dx="2933" dy="2778" grid="1" gridSize="10" guides="1" tooltips="1" connect="1" arrows="1" fold="1" page="1" pageScale="1" pageWidth="827" pageHeight="1169" math="0" shadow="0">
            <root>
                <mxCell id="0"/>
                <mxCell id="1" parent="0"/>
                <mxCell id="9FMxC_WwyjClu7fRybt6-1" value="" style="html=1;overflow=block;blockSpacing=1;whiteSpace=wrap;container=1;pointerEvents=0;collapsible=0;recursiveResize=0;fontSize=13;align=left;spacing=0;strokeColor=#3a414a;strokeOpacity=100;fillOpacity=0;rounded=1;absoluteArcSize=1;arcSize=9;fillColor=#000000;strokeWidth=3.8;lucidId=L5IyH8tRL9Ut;" parent="1" vertex="1">
                    <mxGeometry x="-54" y="-735" width="1044" height="1230" as="geometry"/>
                </mxCell>
                <mxCell id="9FMxC_WwyjClu7fRybt6-19" value="" style="html=1;jettySize=18;whiteSpace=wrap;fontSize=13;strokeColor=#3a414a;strokeOpacity=100;dashed=1;fixDash=1;dashPattern=3 8;strokeWidth=0.8;rounded=0;startArrow=none;endArrow=block;endFill=1;exitX=0.475;exitY=0.5;exitPerimeter=0;entryX=0.026;entryY=0.331;entryPerimeter=0;lucidId=IHUA3~hB1zBc;" parent="9FMxC_WwyjClu7fRybt6-1" edge="1">
                    <mxGeometry width="100" height="100" relative="1" as="geometry">
                        <Array as="points">
                            <mxPoint x="315.37" y="690"/>
                            <mxPoint x="435.37" y="705"/>
                        </Array>
                        <mxPoint x="-419.63" y="548" as="sourcePoint"/>
                        <mxPoint x="577.0000000000001" y="769.7550000000001" as="targetPoint"/>
                    </mxGeometry>
                </mxCell>
                <mxCell id="9FMxC_WwyjClu7fRybt6-30" value="&amp;lt;include&amp;gt;" style="edgeLabel;html=1;align=center;verticalAlign=middle;resizable=0;points=[];" parent="9FMxC_WwyjClu7fRybt6-19" vertex="1" connectable="0">
                    <mxGeometry x="0.6686" y="2" relative="1" as="geometry">
                        <mxPoint as="offset"/>
                    </mxGeometry>
                </mxCell>
                <mxCell id="9FMxC_WwyjClu7fRybt6-14" value="&amp;nbsp; &amp;nbsp; &amp;nbsp; &amp;nbsp; &amp;nbsp; &amp;nbsp; &amp;nbsp;View Statistics" style="html=1;overflow=block;blockSpacing=1;whiteSpace=wrap;ellipse;fontSize=16;align=left;spacing=3.8;strokeColor=#6c8ebf;strokeOpacity=100;fillOpacity=0;rounded=1;absoluteArcSize=1;arcSize=9;fillColor=#dae8fc;strokeWidth=1.5;lucidId=7fPysi4Pk.dH;" parent="9FMxC_WwyjClu7fRybt6-1" vertex="1">
                    <mxGeometry x="94" y="975" width="255" height="105" as="geometry"/>
                </mxCell>
                <mxCell id="9FMxC_WwyjClu7fRybt6-2" value="&amp;nbsp; reservzer un avocat" style="html=1;overflow=block;blockSpacing=1;whiteSpace=wrap;ellipse;fontSize=23.3;align=left;spacing=3.8;strokeColor=#6c8ebf;strokeOpacity=100;fillOpacity=0;rounded=1;absoluteArcSize=1;arcSize=9;fillColor=#dae8fc;strokeWidth=1.5;lucidId=L5IyJD9QFLkV;" parent="1" vertex="1">
                    <mxGeometry x="230" y="-405" width="255" height="105" as="geometry"/>
                </mxCell>
                <mxCell id="9FMxC_WwyjClu7fRybt6-3" value="&amp;nbsp; &amp;nbsp; consulte avocats" style="html=1;overflow=block;blockSpacing=1;whiteSpace=wrap;ellipse;fontSize=23.3;align=left;spacing=3.8;strokeColor=#6c8ebf;strokeOpacity=100;fillOpacity=0;rounded=1;absoluteArcSize=1;arcSize=9;fillColor=#dae8fc;strokeWidth=1.5;lucidId=L5IyOacHFCvj;" parent="1" vertex="1">
                    <mxGeometry x="75" y="-525" width="255" height="105" as="geometry"/>
                </mxCell>
                <mxCell id="9FMxC_WwyjClu7fRybt6-4" value="" style="html=1;jettySize=18;whiteSpace=wrap;fontSize=13;strokeColor=#3a414a;strokeOpacity=100;strokeWidth=2.3;rounded=0;startArrow=none;exitX=0.525;exitY=0.456;exitPerimeter=0;entryX=-0.003;entryY=0.5;entryPerimeter=0;lucidId=L5IyEK864hf1;" parent="1" target="9FMxC_WwyjClu7fRybt6-17" edge="1">
                    <mxGeometry width="100" height="100" relative="1" as="geometry">
                        <Array as="points"/>
                        <mxPoint x="-470" y="-196" as="sourcePoint"/>
                    </mxGeometry>
                </mxCell>
                <mxCell id="9FMxC_WwyjClu7fRybt6-5" value="" style="html=1;jettySize=18;whiteSpace=wrap;fontSize=13;strokeColor=#3a414a;strokeOpacity=100;strokeWidth=2.3;rounded=0;startArrow=none;exitX=0.525;exitY=0.456;exitPerimeter=0;entryX=-0.003;entryY=0.5;entryPerimeter=0;lucidId=L5IyNjxWhfU8;" parent="1" target="9FMxC_WwyjClu7fRybt6-3" edge="1">
                    <mxGeometry width="100" height="100" relative="1" as="geometry">
                        <Array as="points"/>
                        <mxPoint x="-470" y="-196" as="sourcePoint"/>
                    </mxGeometry>
                </mxCell>
                <mxCell id="9FMxC_WwyjClu7fRybt6-6" value="&amp;nbsp; &amp;nbsp; &amp;nbsp; Register" style="html=1;overflow=block;blockSpacing=1;whiteSpace=wrap;ellipse;fontSize=30;align=left;spacing=3.8;strokeColor=#6c8ebf;strokeOpacity=100;fillOpacity=0;rounded=1;absoluteArcSize=1;arcSize=9;fillColor=#dae8fc;strokeWidth=1.5;lucidId=16IyuC4X.0zc;" parent="1" vertex="1">
                    <mxGeometry x="65" y="-666" width="255" height="105" as="geometry"/>
                </mxCell>
                <mxCell id="9FMxC_WwyjClu7fRybt6-7" value="" style="html=1;jettySize=18;whiteSpace=wrap;fontSize=13;strokeColor=#3a414a;strokeOpacity=100;strokeWidth=2.3;rounded=0;startArrow=none;exitX=0.525;exitY=0.462;exitPerimeter=0;entryX=-0.003;entryY=0.5;entryPerimeter=0;lucidId=R-Iy08S77PZM;" parent="1" target="9FMxC_WwyjClu7fRybt6-6" edge="1">
                    <mxGeometry width="100" height="100" relative="1" as="geometry">
                        <Array as="points"/>
                        <mxPoint x="-470" y="-195" as="sourcePoint"/>
                    </mxGeometry>
                </mxCell>
                <mxCell id="9FMxC_WwyjClu7fRybt6-13" value="" style="html=1;jettySize=18;whiteSpace=wrap;fontSize=13;strokeColor=#3a414a;strokeOpacity=100;strokeWidth=2.3;rounded=0;startArrow=none;entryX=-0.003;entryY=0.5;entryPerimeter=0;lucidId=yIKyojOpGAec;" parent="1" target="9FMxC_WwyjClu7fRybt6-15" edge="1">
                    <mxGeometry width="100" height="100" relative="1" as="geometry">
                        <Array as="points"/>
                        <mxPoint x="-430" y="173" as="sourcePoint"/>
                    </mxGeometry>
                </mxCell>
                <mxCell id="9FMxC_WwyjClu7fRybt6-15" value="&amp;nbsp; &amp;nbsp; &amp;nbsp; &amp;nbsp; Manage Reservation" style="html=1;overflow=block;blockSpacing=1;whiteSpace=wrap;ellipse;fontSize=16;align=left;spacing=3.8;strokeColor=#6c8ebf;strokeOpacity=100;fillOpacity=0;rounded=1;absoluteArcSize=1;arcSize=9;fillColor=#dae8fc;strokeWidth=1.5;lucidId=0fPyBYk.P0Cl;" parent="1" vertex="1">
                    <mxGeometry x="80" y="120" width="255" height="105" as="geometry"/>
                </mxCell>
                <mxCell id="9FMxC_WwyjClu7fRybt6-16" value="&lt;div style=&quot;display: flex; justify-content: flex-start; text-align: left; align-items: baseline; line-height: 1.25; margin-top: -2px; font-size: 0px;&quot;&gt;&lt;span&gt;&lt;span style=&quot;font-size:16px;&quot;&gt;&lt;/span&gt;&lt;span style=&quot;font-size:30px;&quot;&gt;&amp;nbsp; &amp;nbsp; LogIn&lt;/span&gt;&lt;span style=&quot;font-size:16px;&quot;&gt; &lt;/span&gt;&lt;/span&gt;&lt;/div&gt;" style="html=1;overflow=block;blockSpacing=1;whiteSpace=wrap;ellipse;fontSize=13;spacing=3.8;strokeColor=#6c8ebf;strokeOpacity=100;fillOpacity=0;rounded=1;absoluteArcSize=1;arcSize=9;fillColor=#dae8fc;strokeWidth=1.5;lucidId=qhPy0sxn967j;" parent="1" vertex="1">
                    <mxGeometry x="560" y="122" width="205" height="96" as="geometry"/>
                </mxCell>
                <mxCell id="9FMxC_WwyjClu7fRybt6-17" value="&amp;nbsp; &amp;nbsp;Leave Review" style="html=1;overflow=block;blockSpacing=1;whiteSpace=wrap;ellipse;fontSize=30;align=left;spacing=3.8;strokeColor=#6c8ebf;strokeOpacity=100;fillOpacity=0;rounded=1;absoluteArcSize=1;arcSize=9;fillColor=#dae8fc;strokeWidth=1.5;lucidId=iDUAK~X3~x9r;" parent="1" vertex="1">
                    <mxGeometry x="120" y="-210" width="255" height="105" as="geometry"/>
                </mxCell>
                <mxCell id="9FMxC_WwyjClu7fRybt6-18" value="&amp;nbsp; &amp;nbsp; &amp;nbsp; &amp;nbsp; &amp;nbsp; &amp;nbsp; manage profile" style="html=1;overflow=block;blockSpacing=1;whiteSpace=wrap;ellipse;fontSize=16;align=left;spacing=3.8;strokeColor=#6c8ebf;strokeOpacity=100;fillOpacity=0;rounded=1;absoluteArcSize=1;arcSize=9;fillColor=#dae8fc;strokeWidth=1.5;lucidId=vHUAiKY-fbPd;" parent="1" vertex="1">
                    <mxGeometry x="515" width="255" height="105" as="geometry"/>
                </mxCell>
                <mxCell id="9FMxC_WwyjClu7fRybt6-20" value="" style="html=1;jettySize=18;whiteSpace=wrap;fontSize=13;strokeColor=#3a414a;strokeOpacity=100;strokeWidth=0.8;rounded=0;startArrow=none;endArrow=block;endFill=1;exitX=0.97;exitY=0.911;exitPerimeter=0;entryX=-0.003;entryY=0.5;entryPerimeter=0;lucidId=9LUA9mcZPsPl;" parent="1" target="9FMxC_WwyjClu7fRybt6-14" edge="1">
                    <mxGeometry width="100" height="100" relative="1" as="geometry">
                        <Array as="points"/>
                        <mxPoint x="-409" y="254" as="sourcePoint"/>
                    </mxGeometry>
                </mxCell>
                <mxCell id="9FMxC_WwyjClu7fRybt6-21" value="" style="html=1;jettySize=18;whiteSpace=wrap;fontSize=13;strokeColor=#3a414a;strokeOpacity=100;strokeWidth=2.3;rounded=0;startArrow=none;exitX=0.475;exitY=0.475;exitPerimeter=0;entryX=-0.003;entryY=0.5;entryPerimeter=0;lucidId=ETUA5nwe9WYS;" parent="1" target="9FMxC_WwyjClu7fRybt6-2" edge="1">
                    <mxGeometry width="100" height="100" relative="1" as="geometry">
                        <Array as="points"/>
                        <mxPoint x="-475" y="-192" as="sourcePoint"/>
                    </mxGeometry>
                </mxCell>
                <mxCell id="9FMxC_WwyjClu7fRybt6-22" value="" style="html=1;jettySize=18;whiteSpace=wrap;fontSize=13;strokeColor=#3a414a;strokeOpacity=100;dashed=1;fixDash=1;dashPattern=6 5;strokeWidth=0.8;rounded=1;arcSize=12;curved=1;startArrow=none;endArrow=block;endFill=1;exitX=-0.003;exitY=0.5;exitPerimeter=0;lucidId=YWUAsG1~ZB_K;" parent="1" source="9FMxC_WwyjClu7fRybt6-18" edge="1">
                    <mxGeometry width="100" height="100" relative="1" as="geometry">
                        <Array as="points">
                            <mxPoint x="327" y="52"/>
                            <mxPoint x="-465" y="-101"/>
                        </Array>
                        <mxPoint x="-410" y="190" as="targetPoint"/>
                    </mxGeometry>
                </mxCell>
                <mxCell id="9FMxC_WwyjClu7fRybt6-31" value="&amp;lt;include&amp;gt;" style="edgeLabel;html=1;align=center;verticalAlign=middle;resizable=0;points=[];" parent="9FMxC_WwyjClu7fRybt6-22" vertex="1" connectable="0">
                    <mxGeometry x="-0.7381" y="-7" relative="1" as="geometry">
                        <mxPoint as="offset"/>
                    </mxGeometry>
                </mxCell>
                <mxCell id="9FMxC_WwyjClu7fRybt6-26" value="&amp;nbsp; &amp;nbsp; &amp;nbsp; Gestion des disponibilités" style="html=1;overflow=block;blockSpacing=1;whiteSpace=wrap;ellipse;fontSize=14;align=left;spacing=3.8;strokeColor=#6c8ebf;strokeOpacity=100;fillOpacity=0;rounded=1;absoluteArcSize=1;arcSize=9;fillColor=#dae8fc;strokeWidth=1.5;lucidId=f3UA48ulklcp;" parent="1" vertex="1">
                    <mxGeometry x="75" y="375" width="255" height="105" as="geometry"/>
                </mxCell>
                <mxCell id="9FMxC_WwyjClu7fRybt6-27" value="" style="html=1;jettySize=18;whiteSpace=wrap;fontSize=13;strokeColor=#3a414a;strokeOpacity=100;strokeWidth=0.8;rounded=1;arcSize=12;curved=1;startArrow=none;endArrow=block;endFill=1;exitX=-0.003;exitY=0.5;exitPerimeter=0;lucidId=t3UAgwZrAO1U;" parent="1" source="9FMxC_WwyjClu7fRybt6-26" edge="1">
                    <mxGeometry width="100" height="100" relative="1" as="geometry">
                        <Array as="points">
                            <mxPoint x="-113" y="428"/>
                            <mxPoint x="-592" y="-7"/>
                            <mxPoint x="-440" y="150"/>
                        </Array>
                        <mxPoint x="-405" y="181" as="targetPoint"/>
                    </mxGeometry>
                </mxCell>
                <mxCell id="9FMxC_WwyjClu7fRybt6-39" value="Actor" style="shape=umlActor;verticalLabelPosition=bottom;verticalAlign=top;html=1;outlineConnect=0;" parent="1" vertex="1">
                    <mxGeometry x="-500" y="-230" width="30" height="60" as="geometry"/>
                </mxCell>
                <mxCell id="9FMxC_WwyjClu7fRybt6-40" value="Actor" style="shape=umlActor;verticalLabelPosition=bottom;verticalAlign=top;html=1;outlineConnect=0;" parent="1" vertex="1">
                    <mxGeometry x="-490" y="130" width="50" height="72.5" as="geometry"/>
                </mxCell>
                <mxCell id="9FMxC_WwyjClu7fRybt6-44" value="" style="endArrow=block;dashed=1;endFill=0;endSize=12;html=1;rounded=0;exitX=1;exitY=0.5;exitDx=0;exitDy=0;entryX=0;entryY=0.5;entryDx=0;entryDy=0;" parent="1" source="9FMxC_WwyjClu7fRybt6-15" target="9FMxC_WwyjClu7fRybt6-16" edge="1">
                    <mxGeometry width="160" relative="1" as="geometry">
                        <mxPoint x="380" y="140" as="sourcePoint"/>
                        <mxPoint x="540" y="140" as="targetPoint"/>
                    </mxGeometry>
                </mxCell>
                <mxCell id="9FMxC_WwyjClu7fRybt6-45" value="&amp;lt;include&amp;gt;" style="edgeLabel;html=1;align=center;verticalAlign=middle;resizable=0;points=[];" parent="9FMxC_WwyjClu7fRybt6-44" vertex="1" connectable="0">
                    <mxGeometry x="-0.3466" y="4" relative="1" as="geometry">
                        <mxPoint as="offset"/>
                    </mxGeometry>
                </mxCell>
                <mxCell id="9FMxC_WwyjClu7fRybt6-49" value="" style="endArrow=block;dashed=1;endFill=0;endSize=12;html=1;rounded=0;" parent="1" edge="1">
                    <mxGeometry width="160" relative="1" as="geometry">
                        <mxPoint x="-430" y="210" as="sourcePoint"/>
                        <mxPoint x="600" y="210" as="targetPoint"/>
                        <Array as="points">
                            <mxPoint x="290" y="320"/>
                            <mxPoint x="420" y="260"/>
                        </Array>
                    </mxGeometry>
                </mxCell>
                <mxCell id="9FMxC_WwyjClu7fRybt6-50" value="&amp;lt;include&amp;gt;" style="edgeLabel;html=1;align=center;verticalAlign=middle;resizable=0;points=[];" parent="9FMxC_WwyjClu7fRybt6-49" vertex="1" connectable="0">
                    <mxGeometry x="0.7155" y="-1" relative="1" as="geometry">
                        <mxPoint as="offset"/>
                    </mxGeometry>
                </mxCell>
                <mxCell id="9FMxC_WwyjClu7fRybt6-51" value="" style="endArrow=block;dashed=1;endFill=0;endSize=12;html=1;rounded=0;exitX=1;exitY=0.5;exitDx=0;exitDy=0;entryX=0.696;entryY=0.957;entryDx=0;entryDy=0;entryPerimeter=0;" parent="1" source="9FMxC_WwyjClu7fRybt6-26" target="9FMxC_WwyjClu7fRybt6-16" edge="1">
                    <mxGeometry width="160" relative="1" as="geometry">
                        <mxPoint x="70" y="390" as="sourcePoint"/>
                        <mxPoint x="230" y="390" as="targetPoint"/>
                    </mxGeometry>
                </mxCell>
                <mxCell id="9FMxC_WwyjClu7fRybt6-52" value="&amp;lt;include&amp;gt;" style="edgeLabel;html=1;align=center;verticalAlign=middle;resizable=0;points=[];" parent="9FMxC_WwyjClu7fRybt6-51" vertex="1" connectable="0">
                    <mxGeometry x="0.2669" y="-1" relative="1" as="geometry">
                        <mxPoint x="1" as="offset"/>
                    </mxGeometry>
                </mxCell>
                <mxCell id="9FMxC_WwyjClu7fRybt6-53" value="" style="endArrow=block;dashed=1;endFill=0;endSize=12;html=1;rounded=0;exitX=0.995;exitY=0.619;exitDx=0;exitDy=0;exitPerimeter=0;entryX=1;entryY=0.5;entryDx=0;entryDy=0;" parent="1" source="9FMxC_WwyjClu7fRybt6-6" target="9FMxC_WwyjClu7fRybt6-16" edge="1">
                    <mxGeometry width="160" relative="1" as="geometry">
                        <mxPoint x="340" y="-230" as="sourcePoint"/>
                        <mxPoint x="500" y="-230" as="targetPoint"/>
                        <Array as="points">
                            <mxPoint x="870" y="-240"/>
                        </Array>
                    </mxGeometry>
                </mxCell>
                <mxCell id="9FMxC_WwyjClu7fRybt6-54" value="&amp;lt;include&amp;gt;" style="edgeLabel;html=1;align=center;verticalAlign=middle;resizable=0;points=[];" parent="9FMxC_WwyjClu7fRybt6-53" vertex="1" connectable="0">
                    <mxGeometry x="0.0171" y="7" relative="1" as="geometry">
                        <mxPoint y="1" as="offset"/>
                    </mxGeometry>
                </mxCell>
                <mxCell id="9FMxC_WwyjClu7fRybt6-55" value="" style="endArrow=block;dashed=1;endFill=0;endSize=12;html=1;rounded=0;exitX=1;exitY=0.5;exitDx=0;exitDy=0;" parent="1" source="9FMxC_WwyjClu7fRybt6-3" edge="1">
                    <mxGeometry width="160" relative="1" as="geometry">
                        <mxPoint x="230" y="-60" as="sourcePoint"/>
                        <mxPoint x="550" y="170" as="targetPoint"/>
                        <Array as="points">
                            <mxPoint x="750" y="-470"/>
                        </Array>
                    </mxGeometry>
                </mxCell>
                <mxCell id="9FMxC_WwyjClu7fRybt6-56" value="&amp;lt;include&amp;gt;" style="edgeLabel;html=1;align=center;verticalAlign=middle;resizable=0;points=[];" parent="9FMxC_WwyjClu7fRybt6-55" vertex="1" connectable="0">
                    <mxGeometry x="-0.5196" y="7" relative="1" as="geometry">
                        <mxPoint as="offset"/>
                    </mxGeometry>
                </mxCell>
                <mxCell id="9FMxC_WwyjClu7fRybt6-57" value="" style="endArrow=block;dashed=1;endFill=0;endSize=12;html=1;rounded=0;exitX=0.5;exitY=0.5;exitDx=0;exitDy=0;exitPerimeter=0;entryX=0.229;entryY=0.043;entryDx=0;entryDy=0;entryPerimeter=0;" parent="1" source="9FMxC_WwyjClu7fRybt6-39" target="9FMxC_WwyjClu7fRybt6-18" edge="1">
                    <mxGeometry width="160" relative="1" as="geometry">
                        <mxPoint x="230" y="-60" as="sourcePoint"/>
                        <mxPoint x="390" y="-60" as="targetPoint"/>
                    </mxGeometry>
                </mxCell>
                <mxCell id="9FMxC_WwyjClu7fRybt6-58" value="&amp;lt;include&amp;gt;" style="edgeLabel;html=1;align=center;verticalAlign=middle;resizable=0;points=[];" parent="9FMxC_WwyjClu7fRybt6-57" vertex="1" connectable="0">
                    <mxGeometry x="0.2326" y="2" relative="1" as="geometry">
                        <mxPoint as="offset"/>
                    </mxGeometry>
                </mxCell>
            </root>
        </mxGraphModel>
    </diagram>
</mxfile>